<?xml version="1.0" standalone="no"?>
<!DOCTYPE svg PUBLIC "-//W3C//DTD SVG 20010904//EN"
 "http://www.w3.org/TR/2001/REC-SVG-20010904/DTD/svg10.dtd">
<svg version="1.0" xmlns="http://www.w3.org/2000/svg"
 width="500.000000pt" height="500.000000pt" viewBox="0 0 500.000000 500.000000"
 preserveAspectRatio="xMidYMid meet">

<g transform="translate(0.000000,500.000000) scale(0.100000,-0.100000)"
fill="#000000" stroke="none">
<path d="M1337 3863 c-2 -5 112 -291 254 -638 l257 -630 79 -3 78 -2 255 626
c140 344 256 632 258 640 3 11 -12 14 -67 14 -111 0 -100 18 -312 -515 -100
-253 -186 -478 -192 -500 -14 -55 -23 -62 -31 -23 -3 18 -92 249 -197 513
-132 332 -199 487 -216 503 -20 18 -35 22 -93 22 -38 0 -71 -3 -73 -7z"/>
<path d="M2697 3863 c-4 -3 -7 -291 -7 -640 l0 -633 263 0 c289 0 372 12 462
65 61 35 131 117 150 175 20 60 22 160 4 220 -18 61 -97 140 -164 164 -96 34
-93 30 -32 60 113 55 174 160 165 285 -17 232 -175 310 -629 311 -113 0 -209
-3 -212 -7z m528 -153 c98 -29 150 -107 143 -215 -10 -153 -107 -204 -390
-205 l-118 0 0 213 c0 118 3 217 8 222 10 11 310 -2 357 -15z m0 -550 c112
-18 177 -83 183 -184 7 -106 -28 -175 -112 -219 -37 -20 -58 -22 -238 -25
l-198 -4 0 221 0 221 153 0 c83 0 179 -5 212 -10z"/>
<path d="M720 1965 l0 -275 295 0 295 0 0 275 0 275 -295 0 -295 0 0 -275z
m253 23 l45 -113 14 35 c8 19 28 68 43 109 27 68 47 93 62 77 7 -7 -84 -238
-104 -265 -10 -14 -13 -14 -26 -1 -12 12 -117 252 -117 266 0 2 9 4 19 4 15 0
29 -25 64 -112z"/>
<path d="M1320 1965 l0 -275 290 0 290 0 0 275 0 275 -290 0 -290 0 0 -275z
m308 -2 c-3 -115 -6 -138 -18 -138 -12 0 -15 22 -18 124 -3 136 -1 151 23 151
13 0 15 -18 13 -137z"/>
<path d="M1917 2233 c-4 -3 -7 -127 -7 -275 l0 -268 290 0 290 0 0 275 0 275
-283 0 c-156 0 -287 -3 -290 -7z m344 -143 c21 -12 26 -40 6 -40 -7 0 -18 5
-24 11 -15 15 -64 7 -77 -13 -16 -25 2 -49 49 -65 52 -18 75 -40 75 -74 0 -41
-9 -58 -41 -74 -36 -19 -72 -19 -110 1 -25 12 -28 18 -19 30 11 12 16 11 41
-3 42 -25 84 -9 84 32 0 26 -7 33 -54 56 -60 28 -75 53 -60 97 16 45 83 67
130 42z"/>
<path d="M2510 1965 l0 -275 290 0 290 0 -2 273 -3 272 -287 3 -288 2 0 -275z
m218 30 c3 -103 9 -121 50 -136 30 -12 77 12 86 43 3 13 6 63 6 111 0 79 2 88
18 85 14 -3 18 -16 20 -83 4 -89 -8 -143 -37 -169 -26 -23 -84 -31 -121 -16
-48 20 -60 55 -60 170 0 91 2 101 18 98 15 -3 17 -17 20 -103z"/>
<path d="M3100 1965 l0 -275 290 0 290 0 0 275 0 275 -290 0 -290 0 0 -275z
m358 8 c51 -126 59 -153 45 -153 -16 0 -30 16 -42 48 -13 31 -15 32 -72 32
-57 0 -59 -1 -73 -34 -8 -18 -19 -37 -25 -40 -30 -19 -25 14 16 117 25 61 49
122 54 135 5 12 17 22 27 22 15 0 30 -28 70 -127z"/>
<path d="M3367 1998 c-26 -70 -26 -70 21 -72 23 0 42 3 42 8 0 16 -35 106 -41
106 -3 0 -13 -19 -22 -42z"/>
<path d="M3690 1965 l0 -275 295 0 295 0 0 275 0 275 -295 0 -295 0 0 -275z
m268 7 l3 -122 54 0 c43 0 55 -3 55 -15 0 -13 -13 -15 -72 -13 l-73 3 -3 138
c-2 128 -1 138 15 135 16 -3 18 -18 21 -126z"/>
<path d="M1030 1395 l0 -275 285 0 285 0 0 275 0 275 -285 0 -285 0 0 -275z
m360 115 c25 -25 26 -65 0 -87 -19 -16 -19 -17 5 -39 42 -38 28 -92 -29 -114
-15 -5 -52 -10 -82 -10 l-54 0 0 135 0 135 70 0 c57 0 74 -4 90 -20z"/>
<path d="M1260 1460 c0 -47 13 -55 65 -46 26 5 36 13 41 32 9 36 -11 54 -62
54 l-44 0 0 -40z"/>
<path d="M1264 1376 c-3 -8 -4 -29 -2 -48 3 -29 7 -33 36 -36 67 -7 107 49 60
82 -28 20 -87 21 -94 2z"/>
<path d="M1620 1395 l0 -275 288 2 287 3 3 273 2 272 -290 0 -290 0 0 -275z
m345 131 c53 -22 77 -69 72 -139 -4 -76 -41 -117 -111 -124 -92 -11 -150 41
-151 133 0 61 23 99 76 126 41 22 69 22 114 4z"/>
<path d="M1847 1480 c-52 -41 -43 -146 15 -176 66 -34 138 11 138 88 0 44 -21
93 -45 102 -33 12 -83 6 -108 -14z"/>
<path d="M2210 1395 l0 -275 290 0 290 0 0 275 0 275 -290 0 -290 0 0 -275z
m369 117 c36 -27 51 -59 51 -115 0 -85 -49 -137 -130 -137 -85 0 -134 53 -133
144 1 56 23 92 74 119 41 22 101 17 138 -11z"/>
<path d="M2443 1485 c-26 -18 -42 -68 -36 -112 11 -75 110 -106 159 -50 34 40
34 118 -1 152 -28 29 -88 34 -122 10z"/>
<path d="M2802 1398 l3 -273 288 -3 287 -2 0 275 0 275 -290 0 -290 0 2 -272z
m343 130 c14 -6 25 -17 25 -25 0 -16 -11 -17 -45 -1 -36 16 -78 -3 -73 -35 2
-15 19 -29 56 -48 30 -14 58 -33 64 -43 15 -26 1 -83 -25 -101 -46 -32 -166
-5 -136 31 9 12 14 11 32 -1 26 -18 69 -19 85 -3 7 7 12 23 12 36 0 18 -11 28
-54 47 -82 36 -97 76 -47 126 32 31 64 36 106 17z"/>
<path d="M3400 1395 l0 -275 285 0 285 0 0 275 0 275 -285 0 -285 0 0 -275z
m390 120 c0 -11 -12 -15 -46 -15 l-45 0 2 -117 c1 -102 -1 -118 -15 -121 -14
-3 -16 11 -16 117 l0 121 -45 0 c-33 0 -45 4 -45 15 0 12 18 15 105 15 87 0
105 -3 105 -15z"/>
</g>
</svg>
